<svg xmlns="http://www.w3.org/2000/svg" xmlns:xlink="http://www.w3.org/1999/xlink" version="1.1" width="256" height="256" viewBox="0 0 256 256" xml:space="preserve">

<defs>
</defs>
<g style="stroke: none; stroke-width: 0; stroke-dasharray: none; stroke-linecap: butt; stroke-linejoin: miter; stroke-miterlimit: 10; fill: none; fill-rule: nonzero; opacity: 1;" transform="translate(1.4065934065934016 1.4065934065934016) scale(2.81 2.81)" >
	<path d="M 89 44.006 h -5.046 c -0.403 -16.181 -10.533 -30.03 -25.229 -35.492 h 17.307 c 0.488 3.399 3.412 6.022 6.945 6.022 c 3.873 0 7.023 -3.15 7.023 -7.022 s -3.15 -7.022 -7.023 -7.022 c -3.533 0 -6.457 2.624 -6.945 6.022 H 52.023 V 1.018 c 0 -0.552 -0.447 -1 -1 -1 H 38.976 c -0.552 0 -1 0.448 -1 1 v 5.497 H 13.968 c -0.488 -3.399 -3.412 -6.022 -6.944 -6.022 C 3.151 0.492 0 3.643 0 7.515 s 3.151 7.022 7.024 7.022 c 3.533 0 6.456 -2.624 6.944 -6.022 h 17.307 C 16.579 13.977 6.449 27.825 6.046 44.006 H 1 c -0.552 0 -1 0.448 -1 1 v 12.044 c 0 0.553 0.448 1 1 1 h 12.048 c 0.552 0 1 -0.447 1 -1 V 45.006 c 0 -0.552 -0.448 -1 -1 -1 H 8.046 c 0.458 -17.444 12.832 -32.022 29.93 -35.293 v 4.349 c 0 0.552 0.448 1 1 1 h 12.047 c 0.553 0 1 -0.448 1 -1 V 8.713 c 17.099 3.271 29.473 17.849 29.931 35.294 h -5.002 c -0.553 0 -1 0.448 -1 1 v 12.044 c 0 0.553 0.447 1 1 1 H 89 c 0.553 0 1 -0.447 1 -1 V 45.006 C 90 44.454 89.553 44.006 89 44.006 z M 12.048 56.051 H 2 V 46.007 h 10.048 V 56.051 z M 82.977 2.492 c 2.77 0 5.023 2.253 5.023 5.022 s -2.254 5.022 -5.023 5.022 c -2.771 0 -5.024 -2.253 -5.024 -5.022 S 80.206 2.492 82.977 2.492 z M 7.024 12.537 C 4.254 12.537 2 10.284 2 7.515 s 2.254 -5.022 5.024 -5.022 s 5.024 2.253 5.024 5.022 S 9.794 12.537 7.024 12.537 z M 50.023 12.062 H 39.976 V 2.018 h 10.047 V 12.062 z M 88 56.051 H 77.952 V 46.007 H 88 V 56.051 z" style="stroke: none; stroke-width: 1; stroke-dasharray: none; stroke-linecap: butt; stroke-linejoin: miter; stroke-miterlimit: 10; fill: rgb(0,0,0); fill-rule: nonzero; opacity: 1;" transform=" matrix(1 0 0 1 0 0) " stroke-linecap="round" />
	<path d="M 65.342 59.952 l -19.45 -38.39 c -0.043 -0.085 -0.099 -0.159 -0.163 -0.222 c -0.183 -0.198 -0.439 -0.326 -0.729 -0.326 s -0.546 0.128 -0.729 0.326 c -0.064 0.063 -0.12 0.137 -0.163 0.222 l -19.45 38.39 c -0.164 0.324 -0.14 0.712 0.064 1.013 l 9.553 14.111 v 13.941 c 0 0.553 0.448 1 1 1 h 19.45 c 0.553 0 1 -0.447 1 -1 V 75.076 l 9.554 -14.111 C 65.482 60.664 65.507 60.276 65.342 59.952 z M 36.275 88.018 V 75.77 h 17.45 v 12.248 H 36.275 z M 54.194 73.77 H 35.806 l -9.098 -13.438 L 44 26.201 v 25.644 c 0 0.553 0.448 1 1 1 s 1 -0.447 1 -1 V 26.201 l 17.292 34.13 L 54.194 73.77 z" style="stroke: none; stroke-width: 1; stroke-dasharray: none; stroke-linecap: butt; stroke-linejoin: miter; stroke-miterlimit: 10; fill: rgb(0,0,0); fill-rule: nonzero; opacity: 1;" transform=" matrix(1 0 0 1 0 0) " stroke-linecap="round" />
</g>
</svg>