<svg xmlns="http://www.w3.org/2000/svg" xmlns:xlink="http://www.w3.org/1999/xlink" version="1.1" width="256" height="256" viewBox="0 0 256 256" xml:space="preserve">

<defs>
</defs>
<g style="stroke: none; stroke-width: 0; stroke-dasharray: none; stroke-linecap: butt; stroke-linejoin: miter; stroke-miterlimit: 10; fill: none; fill-rule: nonzero; opacity: 1;" transform="translate(1.4065934065934016 1.4065934065934016) scale(2.81 2.81)" >
	<path d="M 56.745 81.722 H 33.254 c -0.317 0 -0.616 -0.15 -0.805 -0.406 s -0.245 -0.585 -0.151 -0.889 l 0.741 -2.399 c 0.675 -2.188 2.667 -3.659 4.958 -3.659 h 14.005 c 2.29 0 4.282 1.471 4.957 3.659 l 0.74 2.399 c 0.094 0.304 0.038 0.633 -0.15 0.889 S 57.063 81.722 56.745 81.722 z M 34.61 79.722 h 20.78 l -0.34 -1.104 c -0.416 -1.345 -1.64 -2.249 -3.047 -2.249 H 37.998 c -1.408 0 -2.632 0.903 -3.047 2.249 L 34.61 79.722 z" style="stroke: none; stroke-width: 1; stroke-dasharray: none; stroke-linecap: butt; stroke-linejoin: miter; stroke-miterlimit: 10; fill: rgb(0,0,0); fill-rule: nonzero; opacity: 1;" transform=" matrix(1 0 0 1 0 0) " stroke-linecap="round" />
	<path d="M 65.558 90 H 24.442 v -3.896 c 0 -3.519 2.863 -6.382 6.382 -6.382 h 28.352 c 3.519 0 6.382 2.863 6.382 6.382 V 90 z M 26.442 88 h 37.116 v -1.896 c 0 -2.416 -1.966 -4.382 -4.382 -4.382 H 30.824 c -2.416 0 -4.382 1.966 -4.382 4.382 V 88 z" style="stroke: none; stroke-width: 1; stroke-dasharray: none; stroke-linecap: butt; stroke-linejoin: miter; stroke-miterlimit: 10; fill: rgb(0,0,0); fill-rule: nonzero; opacity: 1;" transform=" matrix(1 0 0 1 0 0) " stroke-linecap="round" />
	<path d="M 54.211 6.684 H 22.596 c -0.552 0 -1 -0.448 -1 -1 s 0.448 -1 1 -1 h 31.615 c 0.553 0 1 0.448 1 1 S 54.764 6.684 54.211 6.684 z" style="stroke: none; stroke-width: 1; stroke-dasharray: none; stroke-linecap: butt; stroke-linejoin: miter; stroke-miterlimit: 10; fill: rgb(0,0,0); fill-rule: nonzero; opacity: 1;" transform=" matrix(1 0 0 1 0 0) " stroke-linecap="round" />
	<path d="M 61.855 6.684 h -2.339 c -0.553 0 -1 -0.448 -1 -1 s 0.447 -1 1 -1 h 2.339 c 0.553 0 1 0.448 1 1 S 62.408 6.684 61.855 6.684 z" style="stroke: none; stroke-width: 1; stroke-dasharray: none; stroke-linecap: butt; stroke-linejoin: miter; stroke-miterlimit: 10; fill: rgb(0,0,0); fill-rule: nonzero; opacity: 1;" transform=" matrix(1 0 0 1 0 0) " stroke-linecap="round" />
	<path d="M 47.449 76.368 H 42.55 c -0.552 0 -1 -0.447 -1 -1 l -0.014 -12.289 c -2.33 0 -4.226 -1.896 -4.226 -4.226 c 0 -1.155 0.466 -2.204 1.22 -2.968 c -5.508 -1.607 -10.326 -5.248 -13.364 -10.199 c -10.73 -0.464 -19.093 -9.176 -19.093 -19.958 V 11.19 c 0 -1.975 1.606 -3.582 3.582 -3.582 H 21.73 V 7.272 c 0 -2.582 -1.034 -4.389 -3.074 -5.372 c -0.42 -0.202 -0.645 -0.668 -0.541 -1.124 C 18.219 0.323 18.623 0 19.09 0 h 51.82 c 0.467 0 0.871 0.323 0.975 0.777 c 0.104 0.455 -0.12 0.921 -0.541 1.124 c -2.04 0.982 -3.074 2.79 -3.074 5.372 v 0.336 h 12.075 c 1.975 0 3.581 1.606 3.581 3.582 v 14.539 c 0 10.783 -8.362 19.494 -19.092 19.958 c -3.038 4.951 -7.856 8.592 -13.365 10.199 c 0.755 0.764 1.221 1.813 1.221 2.968 c 0 2.33 -1.896 4.226 -4.227 4.226 h -0.014 v 12.289 C 48.449 75.921 48.002 76.368 47.449 76.368 z M 43.55 74.368 h 2.899 V 62.079 c 0 -0.553 0.447 -1 1 -1 h 1.014 c 1.228 0 2.227 -0.998 2.227 -2.226 s -0.999 -2.226 -2.227 -2.226 h -0.65 c -0.528 0 -0.965 -0.41 -0.998 -0.938 c -0.033 -0.526 0.349 -0.988 0.873 -1.055 c 6.527 -0.824 12.402 -4.732 15.716 -10.455 c 0.19 -0.33 0.553 -0.526 0.934 -0.497 c 0.022 0.001 0.113 0.012 0.135 0.015 c 9.793 -0.287 17.454 -8.18 17.454 -17.971 V 11.19 c 0 -0.872 -0.709 -1.582 -1.581 -1.582 H 67.27 c -0.553 0 -1 -0.448 -1 -1 V 7.272 c 0 -2.138 0.586 -3.918 1.719 -5.272 H 22.012 c 1.132 1.354 1.718 3.134 1.718 5.272 v 1.336 c 0 0.552 -0.448 1 -1 1 H 9.655 c -0.872 0 -1.582 0.709 -1.582 1.582 v 14.539 c 0 9.79 7.661 17.684 17.441 17.97 l 0.148 -0.014 c 0.378 -0.027 0.742 0.166 0.934 0.497 c 3.314 5.722 9.189 9.63 15.716 10.455 c 0.523 0.066 0.906 0.528 0.873 1.055 c -0.033 0.527 -0.47 0.938 -0.998 0.938 h -0.651 c -1.228 0 -2.226 0.998 -2.226 2.226 s 0.999 2.226 2.226 2.226 h 1.014 c 0.552 0 1 0.447 1 1 V 74.368 z M 66.505 40.294 c -0.276 0 -0.543 -0.114 -0.734 -0.321 c -0.232 -0.252 -0.32 -0.605 -0.232 -0.937 c 0.485 -1.822 0.731 -3.667 0.731 -5.485 v -19.78 c 0 -0.552 0.447 -1 1 -1 h 10.494 c 0.553 0 1 0.448 1 1 v 11.957 c 0 7.141 -5.079 13.26 -12.077 14.549 C 66.626 40.289 66.565 40.294 66.505 40.294 z M 68.27 14.771 v 18.78 c 0 1.454 -0.143 2.921 -0.426 4.382 c 5.251 -1.652 8.92 -6.559 8.92 -12.205 V 14.771 H 68.27 z M 23.495 40.294 c -0.06 0 -0.121 -0.005 -0.181 -0.017 c -6.998 -1.289 -12.078 -7.408 -12.078 -14.549 V 13.771 c 0 -0.552 0.448 -1 1 -1 H 22.73 c 0.552 0 1 0.448 1 1 v 19.78 c 0 1.819 0.246 3.664 0.731 5.485 c 0.088 0.331 0 0.685 -0.232 0.936 C 24.038 40.18 23.771 40.294 23.495 40.294 z M 13.236 14.771 v 10.957 c 0 5.646 3.669 10.553 8.92 12.205 c -0.283 -1.46 -0.426 -2.928 -0.426 -4.382 v -18.78 H 13.236 z" style="stroke: none; stroke-width: 1; stroke-dasharray: none; stroke-linecap: butt; stroke-linejoin: miter; stroke-miterlimit: 10; fill: rgb(0,0,0); fill-rule: nonzero; opacity: 1;" transform=" matrix(1 0 0 1 0 0) " stroke-linecap="round" />
	<path d="M 51.238 43 H 38.762 c -0.552 0 -1 -0.448 -1 -1 v -5.843 c 0 -0.552 0.448 -1 1 -1 h 2.4 V 23.745 h -2.4 c -0.552 0 -1 -0.448 -1 -1 v -5.374 c 0 -0.418 0.261 -0.793 0.653 -0.938 l 9.116 -3.371 c 0.304 -0.114 0.648 -0.07 0.918 0.117 c 0.269 0.187 0.429 0.494 0.429 0.821 v 21.157 h 2.36 c 0.553 0 1 0.448 1 1 V 42 C 52.238 42.552 51.791 43 51.238 43 z M 39.762 41 h 10.476 v -3.843 h -2.36 c -0.553 0 -1 -0.448 -1 -1 V 15.436 l -7.116 2.631 v 3.678 h 2.4 c 0.552 0 1 0.448 1 1 v 13.412 c 0 0.552 -0.448 1 -1 1 h -2.4 V 41 z" style="stroke: none; stroke-width: 1; stroke-dasharray: none; stroke-linecap: butt; stroke-linejoin: miter; stroke-miterlimit: 10; fill: rgb(0,0,0); fill-rule: nonzero; opacity: 1;" transform=" matrix(1 0 0 1 0 0) " stroke-linecap="round" />
</g>
</svg>